<!--<svg width='32' height='22' viewBox='0 0 32 22' fill='none' xmlns='http://www.w3.org/2000/svg'><path fillRule='evenodd' clipRule='evenodd' fill='currentColor' d='M0.00172773 0V6.85398C0.00172773 6.85398 -0.133178 9.01207 1.98092 10.8388L13.6912 21.9964L19.7809 21.9181L18.8042 9.88248L16.4951 7.17289L9.23799 0H0.00172773Z' /><path fill='#161616' opacity='0.06' fillRule='evenodd' clipRule='evenodd' d='M7.69824 16.4364L12.5199 3.23696L16.5541 7.25596L7.69824 16.4364Z' /><path fill='#161616' opacity='0.06' fillRule='evenodd' clipRule='evenodd' d='M8.07751 15.9175L13.9419 4.63989L16.5849 7.28475L8.07751 15.9175Z' /><path fillRule='evenodd' clipRule='evenodd' fill='currentColor' d='M7.77295 16.3566L23.6563 0H32V6.88383C32 6.88383 31.8262 9.17836 30.6591 10.4057L19.7824 22H13.6938L7.77295 16.3566Z' /></svg>-->
<svg version="1.0" xmlns="http://www.w3.org/2000/svg"
 width="1042.000000pt" height="1042.000000pt" viewBox="0 0 1042.000000 1042.000000"
 preserveAspectRatio="xMidYMid meet">

<g transform="translate(0.000000,1042.000000) scale(0.100000,-0.100000)"
fill="#000000" stroke="none">
<path d="M6716 7759 c-461 -49 -892 -304 -1156 -685 l-49 -71 447 -7 447 -8
78 37 c123 57 212 77 375 82 l142 6 0 322 0 323 -22 6 c-30 8 -164 5 -262 -5z"/>
<path d="M3425 7746 c-448 -74 -838 -321 -1087 -691 -330 -490 -368 -1103
-102 -1625 227 -446 636 -756 1131 -857 136 -28 492 -25 627 5 413 92 771 332
1001 671 l66 96 -436 3 -435 2 -91 -45 c-49 -25 -134 -58 -187 -72 -84 -24
-116 -27 -242 -27 -120 0 -160 4 -230 23 -279 75 -508 261 -630 514 -70 147
-85 218 -85 412 0 148 3 181 23 250 96 335 362 593 698 677 131 33 332 31 465
-4 325 -87 592 -348 675 -660 10 -35 21 -67 24 -71 4 -5 116 116 248 269 l241
277 -26 46 c-229 399 -613 684 -1058 787 -105 24 -145 28 -315 30 -128 2 -223
-1 -275 -10z"/>
<path d="M4825 6204 c-253 -289 -477 -545 -498 -569 l-39 -45 175 0 174 0 474
552 c261 303 480 560 487 570 13 17 6 18 -150 18 l-163 -1 -460 -525z"/>
<path d="M5419 6178 c-266 -303 -490 -560 -497 -570 -13 -17 -6 -18 160 -18
l173 1 460 535 c253 295 473 552 488 570 l28 34 -163 0 -164 0 -485 -552z"/>
<path d="M5697 5696 l-236 -294 39 -65 c136 -233 372 -460 615 -592 233 -127
499 -194 768 -195 l117 0 0 328 0 327 -127 2 c-145 1 -266 27 -386 81 -258
117 -455 351 -528 626 -11 38 -21 71 -23 73 -2 2 -109 -129 -239 -291z"/>
<path d="M2247 4254 c-4 -4 -7 -47 -7 -96 l0 -88 90 0 91 0 -3 93 -3 92 -80 3
c-45 1 -84 0 -88 -4z"/>
<path d="M3720 4165 l0 -95 85 0 85 0 0 95 0 95 -85 0 -85 0 0 -95z"/>
<path d="M5200 4165 l0 -95 85 0 85 0 0 95 0 95 -85 0 -85 0 0 -95z"/>
<path d="M7417 4254 c-4 -4 -7 -47 -7 -96 l0 -88 90 0 91 0 -3 93 -3 92 -80 3
c-45 1 -84 0 -88 -4z"/>
<path d="M6487 4214 c-4 -4 -7 -34 -7 -66 l0 -58 105 0 105 0 0 -290 0 -289
-102 -3 -103 -3 -3 -62 -3 -63 286 0 285 0 0 65 0 65 -100 0 -100 0 -2 353 -3
352 -176 3 c-96 1 -178 -1 -182 -4z"/>
<path d="M4400 4080 l0 -90 -85 0 -85 0 0 -65 0 -65 85 0 85 0 0 -162 c0 -179
9 -229 48 -271 37 -39 78 -47 235 -47 l137 0 0 65 0 65 -110 0 c-154 0 -150
-5 -150 195 l0 155 125 0 125 0 0 65 0 65 -125 0 -125 0 0 90 0 90 -80 0 -80
0 0 -90z"/>
<path d="M3027 3986 c-22 -8 -49 -24 -61 -35 -30 -28 -36 -26 -36 9 l0 30 -75
0 -75 0 0 -305 0 -305 80 0 80 0 0 190 c0 205 7 243 51 274 14 9 43 16 72 16
40 0 53 -5 78 -29 l29 -29 0 -211 0 -211 81 0 80 0 -3 238 c-3 218 -5 240 -24
277 -43 83 -179 128 -277 91z"/>
<path d="M5908 3986 c-78 -21 -151 -89 -164 -154 -6 -29 -5 -29 48 -35 85 -11
92 -9 106 21 16 38 55 57 110 56 36 -1 50 -6 69 -28 25 -30 30 -58 11 -74 -7
-6 -64 -19 -125 -30 -140 -25 -190 -51 -220 -112 -49 -95 -17 -192 77 -240 85
-42 196 -32 258 24 l35 33 28 -31 c25 -28 33 -31 103 -34 l76 -4 0 65 c0 64
-1 66 -27 69 l-28 3 -6 160 c-3 89 -11 173 -18 190 -44 109 -187 160 -333 121z
m177 -426 c-21 -41 -71 -70 -120 -70 -55 0 -85 22 -85 64 0 55 18 68 121 86
l94 16 3 -32 c2 -18 -4 -47 -13 -64z"/>
<path d="M2057 3984 c-4 -4 -7 -34 -7 -66 l0 -58 105 0 105 0 0 -175 0 -174
-102 -3 -103 -3 -3 -62 -3 -63 286 0 285 0 0 65 0 65 -100 0 -100 0 -2 238 -3
237 -176 3 c-96 1 -178 -1 -182 -4z"/>
<path d="M3530 3925 l0 -65 100 0 100 0 0 -175 0 -175 -100 0 -100 0 0 -65 0
-65 285 0 286 0 -3 63 -3 62 -102 3 -103 3 0 239 0 240 -180 0 -180 0 0 -65z"/>
<path d="M5010 3925 l0 -65 100 0 100 0 0 -175 0 -175 -100 0 -100 0 0 -65 0
-65 280 0 280 0 0 65 0 65 -100 0 -100 0 0 240 0 240 -180 0 -180 0 0 -65z"/>
<path d="M7227 3984 c-4 -4 -7 -34 -7 -66 l0 -58 100 0 100 0 0 -175 0 -175
-100 0 -100 0 0 -65 0 -65 285 0 285 0 0 65 0 65 -100 0 -100 0 -2 238 -3 237
-176 3 c-96 1 -178 -1 -182 -4z"/>
<path d="M7967 3983 c-4 -3 -7 -35 -7 -69 l0 -64 159 -2 159 -3 -164 -175
-164 -174 0 -58 0 -58 275 0 275 0 0 65 0 65 -174 2 -173 3 169 180 169 179
-3 56 -3 55 -256 3 c-140 1 -258 -1 -262 -5z"/>
</g>
</svg>
